<?xml version="1.0" encoding="UTF-8" standalone="no"?>
<svg
   xmlns:dc="http://purl.org/dc/elements/1.1/"
   xmlns:cc="http://creativecommons.org/ns#"
   xmlns:rdf="http://www.w3.org/1999/02/22-rdf-syntax-ns#"
   xmlns:svg="http://www.w3.org/2000/svg"
   xmlns="http://www.w3.org/2000/svg"
   xmlns:sodipodi="http://sodipodi.sourceforge.net/DTD/sodipodi-0.dtd"
   xmlns:inkscape="http://www.inkscape.org/namespaces/inkscape"
   viewBox="0 0 2810.08 386.371"
   version="1.1"
   id="svg1149"
   sodipodi:docname="dsckiit_logo_colour.svg"
   inkscape:version="0.92.3 (2405546, 2018-03-11)">
  <metadata
     id="metadata1153">
    <rdf:RDF>
      <cc:Work
         rdf:about="">
        <dc:format>image/svg+xml</dc:format>
        <dc:type
           rdf:resource="http://purl.org/dc/dcmitype/StillImage" />
      </cc:Work>
    </rdf:RDF>
  </metadata>
  <sodipodi:namedview
     pagecolor="#ffffff"
     bordercolor="#666666"
     borderopacity="1"
     objecttolerance="10"
     gridtolerance="10"
     guidetolerance="10"
     inkscape:pageopacity="0"
     inkscape:pageshadow="2"
     inkscape:window-width="1920"
     inkscape:window-height="1016"
     id="namedview1151"
     showgrid="false"
     inkscape:zoom="0.31227563"
     inkscape:cx="1260.5869"
     inkscape:cy="307.20341"
     inkscape:window-x="0"
     inkscape:window-y="30"
     inkscape:window-maximized="1"
     inkscape:current-layer="colour_horizontal" />
  <defs
     id="defs1014">
    <style
       id="style1012">
      .cls-1 {
        fill: #ea4235;
      }

      .cls-2 {
        fill: #fabb04;
      }

      .cls-3 {
        fill: #4286f5;
      }

      .cls-4 {
        fill: #109d58;
      }

      .cls-5 {
        fill: #292929;
      }
    </style>
  </defs>
  <title
     id="title1016">dsckiit2019_colour_horizon</title>
  <g
     id="colour_horizontal">
    <g
       id="DSC_KIIT_-_Colored_Horizontal_Logo_SVG"
       data-name="DSC KIIT - Colored Horizontal Logo SVG">
      <g
         id="Group_8"
         data-name="Group 8">
        <path
           id="path0"
           class="cls-1"
           d="M 138.073,1.242 A 39.455,39.455 0 0 0 132,3.506 C 127.531,5.741 8.08,73.321 8.265,73.506 a 18.194,18.194 0 0 0 3.686,-0.78 c 11.617,-3.136 16.576,-1.4 49.573,17.356 20.12,11.438 26.936,15.026 27.77,14.618 15.075,-7.392 77.573,-44.024 81.157,-47.57 24.118,-23.853 0.432,-64.722 -32.388,-55.886"
           inkscape:connector-curvature="0"
           style="fill:#ea4235" />
        <path
           id="path0-2"
           class="cls-2"
           d="m 280.409,114.922 c -44.764,26.934 -46.218,28.13 -49.581,40.774 -7.458,28.024 21.79,51.7 47.663,38.59 3.44,-1.742 122.605,-73.2 122.072,-73.2 a 46.285,46.285 0 0 0 -4.475,1.745 c -3.7,1.572 -4.84,1.742 -11.457,1.717 -9.619,-0.042 -9.434,0.038 -40.163,-17.429 C 330.793,99.35 319.2,92.857 318.709,92.7 c -0.491,-0.157 -17.727,9.843 -38.3,22.222"
           inkscape:connector-curvature="0"
           style="fill:#fabb04" />
        <path
           id="path1"
           class="cls-3"
           d="m 29.531,62.675 c -6.617,1.3 -8.562,1.85 -11.714,3.286 A 18.939,18.939 0 0 0 13.546,68.4 48.154,48.154 0 0 1 9.831,71.8 C 8.14,73.238 7.346,74.013 3.424,79.6 3.13,79.817 1.617,82.967 0.483,89.712 A 34.468,34.468 0 0 0 3.9,111.4 a 11.589,11.589 0 0 1 1.017,2.357 c -0.08,1 9.619,10.46 10.052,9.8 0.073,-0.118 0.665,0.237 1.308,0.786 1.273,1.09 12.772,7.663 107.887,61.678 20.083,11.4 21.976,12.087 32.321,11.675 29.255,-1.17 42.551,-38.725 20.563,-58.082 -2.775,-2.439 -62.135,-36.707 -75.9,-43.814 C 97.633,93.984 84.248,86.516 71.417,79.2 58.586,71.884 46.611,65.392 44.82,64.762 39.577,62.912 32.927,62.006 29.533,62.675"
           inkscape:connector-curvature="0"
           style="fill:#4286f5" />
        <path
           id="path2"
           class="cls-4"
           d="m 248.582,0.908 c -20.172,5.02 -30,28.116 -20.222,47.5 3.509,6.95 6.956,9.609 27.875,21.511 10.436,5.939 25.835,14.71 34.22,19.492 8.385,4.782 17.062,9.619 19.286,10.744 2.224,1.125 14.673,8.088 27.667,15.476 28.494,16.195 28.226,16.083 37.658,16.135 21.827,0.128 36.846,-19.193 31.4,-40.387 C 403.7,80.623 399.1,75.786 382.843,66.55 323.469,32.816 295.658,17.007 284.7,10.75 267.293,0.815 258.543,-1.573 248.582,0.908"
           inkscape:connector-curvature="0"
           style="fill:#109d58" />
      </g>
    </g>
    <g
       id="g1100"
       style="fill:#ffffff">
      <path
         class="cls-5"
         d="m 513.225,271.663 h 14.4 v 0.484 l -32.186,37.147 34.361,48.521 v 0.484 h -13.67 l -28.193,-40.414 -13.31,15.367 V 358.3 h -11.133 v -86.637 h 11.132 v 44.649 h 0.484 z"
         id="path1024"
         inkscape:connector-curvature="0"
         style="fill:#ffffff" />
      <path
         class="cls-5"
         d="m 557.632,297.073 q 12.341,0 19.481,6.595 7.14,6.595 7.139,18.089 V 358.3 H 573.6 v -8.228 h -0.484 q -6.9,10.164 -18.392,10.164 -9.8,0 -16.4,-5.808 a 18.545,18.545 0 0 1 -6.594,-14.52 17.627,17.627 0 0 1 6.958,-14.641 q 6.957,-5.445 18.573,-5.445 9.92,0 16.335,3.63 v -2.542 a 12.673,12.673 0 0 0 -4.6,-9.861 15.774,15.774 0 0 0 -10.769,-4.054 17.06,17.06 0 0 0 -14.762,7.865 l -9.8,-6.171 q 8.114,-11.616 23.967,-11.616 z m -14.4,43.076 a 8.886,8.886 0 0 0 3.691,7.26 13.576,13.576 0 0 0 8.651,2.9 17.743,17.743 0 0 0 12.523,-5.2 16.3,16.3 0 0 0 5.505,-12.221 q -5.2,-4.112 -14.52,-4.114 a 18.858,18.858 0 0 0 -11.313,3.267 q -4.536,3.268 -4.536,8.108 z"
         id="path1026"
         inkscape:connector-curvature="0"
         style="fill:#ffffff" />
      <path
         class="cls-5"
         d="M 607.484,271.663 V 358.3 h -11.132 v -86.637 z"
         id="path1028"
         inkscape:connector-curvature="0"
         style="fill:#ffffff" />
      <path
         class="cls-5"
         d="m 634.949,278.56 a 7.849,7.849 0 1 1 -2.3,-5.566 7.585,7.585 0 0 1 2.3,5.566 z m -2.3,20.449 V 358.3 h -11.13 v -59.29 z"
         id="path1030"
         inkscape:connector-curvature="0"
         style="fill:#ffffff" />
      <path
         class="cls-5"
         d="m 646.686,299.009 h 10.647 v 8.228 h 0.484 a 19.784,19.784 0 0 1 7.8,-7.26 22.364,22.364 0 0 1 10.95,-2.9 q 10.89,0 16.759,6.231 5.869,6.231 5.868,17.727 V 358.3 h -11.126 v -36.543 q -0.363,-14.52 -14.642,-14.52 a 13.916,13.916 0 0 0 -11.132,5.384 19.506,19.506 0 0 0 -4.477,12.887 V 358.3 h -11.131 z"
         id="path1032"
         inkscape:connector-curvature="0"
         style="fill:#ffffff" />
      <path
         class="cls-5"
         d="m 737.436,386.371 a 33.121,33.121 0 0 1 -9.317,-1.271 30.135,30.135 0 0 1 -7.926,-3.569 25.626,25.626 0 0 1 -6.11,-5.445 22.98,22.98 0 0 1 -3.872,-7.018 l 10.527,-4.356 a 16.673,16.673 0 0 0 6.292,8.349 17.642,17.642 0 0 0 10.406,3.146 q 9.075,0 14.157,-5.445 5.082,-5.445 5.082,-15 v -5.687 h -0.484 a 21.916,21.916 0 0 1 -8.53,7.441 25.517,25.517 0 0 1 -11.677,2.723 q -11.616,0 -19.965,-9.075 a 32.816,32.816 0 0 1 -8.229,-22.506 q 0,-13.187 8.229,-22.385 8.348,-9.194 19.965,-9.2 a 25.517,25.517 0 0 1 11.676,2.727 21.916,21.916 0 0 1 8.53,7.441 h 0.484 v -8.228 h 10.647 v 56.749 q 0,14.276 -8.106,22.385 -8.23,8.223 -21.779,8.224 z m 0.363,-36.3 a 17.045,17.045 0 0 0 13.431,-5.929 q 5.445,-5.927 5.445,-15.488 0,-9.316 -5.445,-15.367 a 17.13,17.13 0 0 0 -13.431,-6.05 17.362,17.362 0 0 0 -13.432,6.05 q -5.445,6.052 -5.445,15.367 0,9.438 5.445,15.367 a 17.355,17.355 0 0 0 13.433,6.05 z"
         id="path1034"
         inkscape:connector-curvature="0"
         style="fill:#ffffff" />
      <path
         class="cls-5"
         d="m 802.292,297.073 q 12.341,0 19.48,6.595 7.139,6.595 7.14,18.089 V 358.3 h -10.648 v -8.228 h -0.484 q -6.9,10.164 -18.392,10.164 -9.8,0 -16.4,-5.808 a 18.546,18.546 0 0 1 -6.595,-14.52 17.627,17.627 0 0 1 6.958,-14.641 q 6.957,-5.445 18.573,-5.445 9.92,0 16.335,3.63 v -2.542 a 12.674,12.674 0 0 0 -4.6,-9.861 15.776,15.776 0 0 0 -10.77,-4.054 17.06,17.06 0 0 0 -14.762,7.865 l -9.8,-6.171 q 8.112,-11.616 23.965,-11.616 z m -14.4,43.076 a 8.888,8.888 0 0 0 3.69,7.26 13.577,13.577 0 0 0 8.651,2.9 17.741,17.741 0 0 0 12.523,-5.2 16.294,16.294 0 0 0 5.506,-12.221 q -5.2,-4.112 -14.52,-4.114 a 18.857,18.857 0 0 0 -11.313,3.267 q -4.536,3.268 -4.536,8.108 z"
         id="path1036"
         inkscape:connector-curvature="0"
         style="fill:#ffffff" />
      <path
         class="cls-5"
         d="m 880.213,358.3 h -11.132 v -86.637 h 11.132 z"
         id="path1038"
         inkscape:connector-curvature="0"
         style="fill:#ffffff" />
      <path
         class="cls-5"
         d="m 895.217,299.009 h 10.647 v 8.228 h 0.484 a 19.784,19.784 0 0 1 7.8,-7.26 22.364,22.364 0 0 1 10.95,-2.9 q 10.89,0 16.759,6.231 5.869,6.231 5.868,17.727 V 358.3 H 936.6 v -36.543 q -0.363,-14.52 -14.642,-14.52 a 13.916,13.916 0 0 0 -11.132,5.384 19.506,19.506 0 0 0 -4.477,12.887 V 358.3 h -11.132 z"
         id="path1040"
         inkscape:connector-curvature="0"
         style="fill:#ffffff" />
      <path
         class="cls-5"
         d="m 1005.085,341.843 q 0,7.745 -6.776,13.068 -6.776,5.323 -17.061,5.324 a 27.09,27.09 0 0 1 -15.73,-4.659 25.668,25.668 0 0 1 -9.68,-12.281 l 9.922,-4.235 a 18.405,18.405 0 0 0 6.353,8.288 15.433,15.433 0 0 0 9.136,2.965 16.1,16.1 0 0 0 8.893,-2.3 q 3.568,-2.3 3.57,-5.445 0,-5.686 -8.712,-8.349 l -10.164,-2.541 q -17.306,-4.356 -17.3,-16.7 a 15.42,15.42 0 0 1 6.595,-13.008 q 6.593,-4.9 16.88,-4.9 a 27.444,27.444 0 0 1 14.217,3.751 20.389,20.389 0 0 1 8.894,10.043 l -9.922,4.114 a 12.5,12.5 0 0 0 -5.5,-5.869 17.283,17.283 0 0 0 -8.531,-2.118 14.3,14.3 0 0 0 -7.8,2.178 q -3.45,2.178 -3.449,5.324 0,5.082 9.56,7.26 l 8.954,2.3 q 17.65,4.359 17.651,17.79 z"
         id="path1042"
         inkscape:connector-curvature="0"
         style="fill:#ffffff" />
      <path
         class="cls-5"
         d="m 1037.15,359.267 a 16.917,16.917 0 0 1 -12.039,-4.477 q -4.783,-4.475 -4.9,-12.463 V 309.173 H 1009.8 v -10.164 h 10.405 v -18.15 h 11.133 v 18.15 h 14.52 v 10.164 h -14.52 V 338.7 q 0,5.93 2.3,8.046 a 7.47,7.47 0 0 0 5.2,2.118 11.149,11.149 0 0 0 2.6,-0.3 13.348,13.348 0 0 0 2.359,-0.786 l 3.509,9.922 a 29.928,29.928 0 0 1 -10.156,1.567 z"
         id="path1044"
         inkscape:connector-curvature="0"
         style="fill:#ffffff" />
      <path
         class="cls-5"
         d="m 1071.026,278.56 a 7.849,7.849 0 1 1 -2.3,-5.566 7.585,7.585 0 0 1 2.3,5.566 z m -2.3,20.449 V 358.3 H 1057.6 v -59.29 z"
         id="path1046"
         inkscape:connector-curvature="0"
         style="fill:#ffffff" />
      <path
         class="cls-5"
         d="m 1105.632,359.267 a 16.917,16.917 0 0 1 -12.039,-4.477 q -4.783,-4.475 -4.9,-12.463 v -33.154 h -10.405 v -10.164 h 10.405 v -18.15 h 11.133 v 18.15 h 14.52 v 10.164 h -14.52 V 338.7 q 0,5.93 2.3,8.046 a 7.47,7.47 0 0 0 5.2,2.118 11.149,11.149 0 0 0 2.6,-0.3 13.348,13.348 0 0 0 2.359,-0.786 l 3.509,9.922 a 29.928,29.928 0 0 1 -10.162,1.567 z"
         id="path1048"
         inkscape:connector-curvature="0"
         style="fill:#ffffff" />
      <path
         class="cls-5"
         d="m 1176.536,358.3 h -10.647 v -8.228 h -0.484 a 19.788,19.788 0 0 1 -7.8,7.26 22.374,22.374 0 0 1 -10.95,2.9 q -10.89,0 -16.759,-6.231 -5.869,-6.231 -5.868,-17.727 v -37.265 h 11.132 v 36.542 q 0.363,14.52 14.642,14.52 a 13.915,13.915 0 0 0 11.132,-5.384 19.509,19.509 0 0 0 4.466,-12.887 v -32.791 h 11.132 z"
         id="path1050"
         inkscape:connector-curvature="0"
         style="fill:#ffffff" />
      <path
         class="cls-5"
         d="m 1213.682,359.267 a 16.917,16.917 0 0 1 -12.039,-4.477 q -4.783,-4.475 -4.9,-12.463 v -33.154 h -10.405 v -10.164 h 10.405 v -18.15 h 11.133 v 18.15 h 14.52 v 10.164 h -14.52 V 338.7 q 0,5.93 2.3,8.046 a 7.47,7.47 0 0 0 5.2,2.118 11.149,11.149 0 0 0 2.6,-0.3 13.348,13.348 0 0 0 2.359,-0.786 l 3.509,9.922 a 29.928,29.928 0 0 1 -10.162,1.567 z"
         id="path1052"
         inkscape:connector-curvature="0"
         style="fill:#ffffff" />
      <path
         class="cls-5"
         d="m 1258.572,360.235 q -13.069,0 -21.538,-8.954 -8.469,-8.954 -8.471,-22.627 0,-13.55 8.229,-22.566 8.229,-9.016 21.054,-9.015 13.187,0 20.993,8.531 7.806,8.531 7.8,23.9 l -0.121,1.21 h -46.585 q 0.242,8.712 5.809,14.036 a 18.573,18.573 0 0 0 13.31,5.324 q 10.646,0 16.7,-10.648 l 9.922,4.84 A 29.562,29.562 0 0 1 1274.6,356 a 30.627,30.627 0 0 1 -16.028,4.235 z m -17.787,-38.72 h 34 a 14.769,14.769 0 0 0 -5.021,-10.224 q -4.538,-4.052 -12.161,-4.054 a 16.137,16.137 0 0 0 -10.829,3.872 18.493,18.493 0 0 0 -5.989,10.406 z"
         id="path1054"
         inkscape:connector-curvature="0"
         style="fill:#ffffff" />
      <path
         class="cls-5"
         d="m 1319.069,328.654 q 0,-13.672 8.591,-22.627 8.713,-8.953 21.9,-8.954 13.187,-10e-4 21.78,8.954 8.711,8.956 8.712,22.627 0,13.794 -8.712,22.627 -8.593,8.956 -21.78,8.954 -13.187,-0.002 -21.9,-8.954 -8.592,-8.953 -8.591,-22.627 z m 11.132,0 q 0,9.56 5.566,15.488 a 19.01,19.01 0 0 0 27.588,0 q 5.565,-5.927 5.566,-15.488 0,-9.438 -5.566,-15.367 a 18.75,18.75 0 0 0 -27.588,0 q -5.567,5.93 -5.567,15.367 z"
         id="path1056"
         inkscape:connector-curvature="0"
         style="fill:#ffffff" />
      <path
         class="cls-5"
         d="m 1415.265,270.7 a 21.078,21.078 0 0 1 9.922,2.057 l -3.025,9.8 a 14.407,14.407 0 0 0 -6.533,-1.452 8.69,8.69 0 0 0 -6.716,2.844 10.764,10.764 0 0 0 -2.6,7.563 v 7.5 h 15.487 v 10.164 h -15.488 V 358.3 h -11.132 v -49.127 h -11.132 v -10.164 h 11.132 v -8.591 q 0,-8.832 5.626,-14.278 5.626,-5.446 14.459,-5.44 z"
         id="path1058"
         inkscape:connector-curvature="0"
         style="fill:#ffffff" />
      <path
         class="cls-5"
         d="m 1471.164,358.3 h -11.132 v -86.637 h 11.132 z"
         id="path1060"
         inkscape:connector-curvature="0"
         style="fill:#ffffff" />
      <path
         class="cls-5"
         d="m 1486.168,299.009 h 10.647 v 8.228 h 0.484 a 19.784,19.784 0 0 1 7.8,-7.26 22.364,22.364 0 0 1 10.95,-2.9 q 10.89,0 16.759,6.231 5.869,6.231 5.868,17.727 V 358.3 h -11.126 v -36.543 q -0.363,-14.52 -14.642,-14.52 a 13.916,13.916 0 0 0 -11.132,5.384 19.506,19.506 0 0 0 -4.477,12.887 V 358.3 h -11.132 z"
         id="path1062"
         inkscape:connector-curvature="0"
         style="fill:#ffffff" />
      <path
         class="cls-5"
         d="m 1576.07,360.235 q -11.616,0 -19.965,-9.2 a 34.563,34.563 0 0 1 0,-44.77 q 8.348,-9.194 19.965,-9.2 a 25.572,25.572 0 0 1 11.918,2.783 20.879,20.879 0 0 1 8.289,7.381 h 0.484 l -0.484,-8.228 v -27.338 h 11.132 V 358.3 h -10.647 v -8.228 h -0.484 a 20.85,20.85 0 0 1 -8.289,7.381 25.572,25.572 0 0 1 -11.919,2.782 z m 1.815,-10.164 a 17.045,17.045 0 0 0 13.431,-5.929 q 5.445,-5.927 5.445,-15.488 0,-9.316 -5.445,-15.367 a 17.13,17.13 0 0 0 -13.431,-6.05 17.362,17.362 0 0 0 -13.432,6.05 q -5.445,6.052 -5.445,15.367 0,9.438 5.445,15.367 a 17.355,17.355 0 0 0 13.433,6.05 z"
         id="path1064"
         inkscape:connector-curvature="0"
         style="fill:#ffffff" />
      <path
         class="cls-5"
         d="m 1672.505,358.3 h -10.647 v -8.228 h -0.484 a 19.788,19.788 0 0 1 -7.8,7.26 22.374,22.374 0 0 1 -10.95,2.9 q -10.89,0 -16.759,-6.231 -5.869,-6.231 -5.868,-17.727 v -37.265 h 11.132 v 36.542 q 0.363,14.52 14.642,14.52 a 13.915,13.915 0 0 0 11.132,-5.384 19.509,19.509 0 0 0 4.477,-12.887 v -32.791 h 11.132 z"
         id="path1066"
         inkscape:connector-curvature="0"
         style="fill:#ffffff" />
      <path
         class="cls-5"
         d="m 1730.344,341.843 q 0,7.745 -6.776,13.068 -6.776,5.323 -17.061,5.324 a 27.09,27.09 0 0 1 -15.73,-4.659 25.668,25.668 0 0 1 -9.68,-12.281 l 9.922,-4.235 a 18.405,18.405 0 0 0 6.353,8.288 15.433,15.433 0 0 0 9.136,2.965 16.1,16.1 0 0 0 8.893,-2.3 q 3.568,-2.3 3.57,-5.445 0,-5.686 -8.712,-8.349 l -10.164,-2.541 q -17.306,-4.356 -17.3,-16.7 a 15.42,15.42 0 0 1 6.595,-13.008 q 6.593,-4.9 16.88,-4.9 a 27.444,27.444 0 0 1 14.217,3.751 20.389,20.389 0 0 1 8.894,10.043 l -9.922,4.114 a 12.5,12.5 0 0 0 -5.5,-5.869 17.283,17.283 0 0 0 -8.531,-2.118 14.3,14.3 0 0 0 -7.8,2.178 q -3.45,2.178 -3.449,5.324 0,5.082 9.56,7.26 l 8.954,2.3 q 17.649,4.359 17.651,17.79 z"
         id="path1068"
         inkscape:connector-curvature="0"
         style="fill:#ffffff" />
      <path
         class="cls-5"
         d="m 1762.408,359.267 a 16.917,16.917 0 0 1 -12.039,-4.477 q -4.783,-4.475 -4.9,-12.463 v -33.154 h -10.405 v -10.164 h 10.405 v -18.15 h 11.131 v 18.15 h 14.52 v 10.164 H 1756.6 V 338.7 q 0,5.93 2.3,8.046 a 7.47,7.47 0 0 0 5.2,2.118 11.149,11.149 0 0 0 2.6,-0.3 13.348,13.348 0 0 0 2.359,-0.786 l 3.509,9.922 a 29.928,29.928 0 0 1 -10.16,1.567 z"
         id="path1070"
         inkscape:connector-curvature="0"
         style="fill:#ffffff" />
      <path
         class="cls-5"
         d="m 1792.415,358.3 h -11.132 v -59.29 h 10.647 v 9.68 h 0.484 a 16.073,16.073 0 0 1 6.957,-8.047 19.318,19.318 0 0 1 10.346,-3.327 20.872,20.872 0 0 1 8.229,1.452 l -3.389,10.769 a 18.489,18.489 0 0 0 -6.534,-0.847 14.4,14.4 0 0 0 -10.95,5.082 16.994,16.994 0 0 0 -4.658,11.858 z"
         id="path1072"
         inkscape:connector-curvature="0"
         style="fill:#ffffff" />
      <path
         class="cls-5"
         d="m 1839.12,278.56 a 7.849,7.849 0 1 1 -2.3,-5.566 7.585,7.585 0 0 1 2.3,5.566 z m -2.3,20.449 V 358.3 h -11.13 v -59.29 z"
         id="path1074"
         inkscape:connector-curvature="0"
         style="fill:#ffffff" />
      <path
         class="cls-5"
         d="m 1872.758,297.073 q 12.341,0 19.48,6.595 7.139,6.595 7.14,18.089 V 358.3 h -10.648 v -8.228 h -0.484 q -6.9,10.164 -18.392,10.164 -9.8,0 -16.4,-5.808 a 18.546,18.546 0 0 1 -6.595,-14.52 17.627,17.627 0 0 1 6.958,-14.641 q 6.957,-5.445 18.573,-5.445 9.92,0 16.335,3.63 v -2.542 a 12.674,12.674 0 0 0 -4.6,-9.861 15.776,15.776 0 0 0 -10.77,-4.054 17.06,17.06 0 0 0 -14.762,7.865 l -9.8,-6.171 q 8.107,-11.616 23.965,-11.616 z m -14.4,43.076 a 8.888,8.888 0 0 0 3.69,7.26 13.577,13.577 0 0 0 8.651,2.9 17.741,17.741 0 0 0 12.523,-5.2 16.294,16.294 0 0 0 5.506,-12.221 q -5.2,-4.112 -14.52,-4.114 a 18.857,18.857 0 0 0 -11.313,3.267 q -4.536,3.268 -4.536,8.108 z"
         id="path1076"
         inkscape:connector-curvature="0"
         style="fill:#ffffff" />
      <path
         class="cls-5"
         d="M 1922.61,271.663 V 358.3 h -11.132 v -86.637 z"
         id="path1078"
         inkscape:connector-curvature="0"
         style="fill:#ffffff" />
      <path
         class="cls-5"
         d="M 1988.432,282.311 V 358.3 H 1977.3 v -75.989 h -24.2 v -10.648 h 59.531 v 10.648 z"
         id="path1080"
         inkscape:connector-curvature="0"
         style="fill:#ffffff" />
      <path
         class="cls-5"
         d="m 2038.769,360.235 q -13.069,0 -21.538,-8.954 -8.469,-8.954 -8.471,-22.627 0,-13.55 8.229,-22.566 8.229,-9.016 21.054,-9.015 13.187,0 20.993,8.531 7.806,8.531 7.8,23.9 l -0.121,1.21 h -46.585 q 0.242,8.712 5.809,14.036 a 18.573,18.573 0 0 0 13.31,5.324 q 10.646,0 16.7,-10.648 l 9.922,4.84 A 29.562,29.562 0 0 1 2054.8,356 a 30.627,30.627 0 0 1 -16.031,4.235 z m -17.787,-38.72 h 34 a 14.769,14.769 0 0 0 -5.021,-10.224 q -4.538,-4.052 -12.161,-4.054 a 16.137,16.137 0 0 0 -10.829,3.872 18.493,18.493 0 0 0 -5.989,10.406 z"
         id="path1082"
         inkscape:connector-curvature="0"
         style="fill:#ffffff" />
      <path
         class="cls-5"
         d="m 2104.228,360.235 q -13.189,0 -21.9,-8.954 -8.593,-9.194 -8.591,-22.627 0,-13.672 8.591,-22.627 8.713,-8.953 21.9,-8.954 a 27.143,27.143 0 0 1 26.015,17.061 l -10.163,4.235 q -4.72,-11.131 -16.577,-11.132 a 17.206,17.206 0 0 0 -13.189,6.171 24.066,24.066 0 0 0 0,30.492 17.206,17.206 0 0 0 13.189,6.171 q 12.22,0 17.182,-11.132 l 9.922,4.235 a 26.56,26.56 0 0 1 -10.225,12.523 28.907,28.907 0 0 1 -16.154,4.538 z"
         id="path1084"
         inkscape:connector-curvature="0"
         style="fill:#ffffff" />
      <path
         class="cls-5"
         d="m 2139.8,271.663 h 11.132 v 27.346 l -0.484,8.228 h 0.484 a 19.784,19.784 0 0 1 7.8,-7.26 22.364,22.364 0 0 1 10.95,-2.9 q 10.89,0 16.759,6.231 5.869,6.231 5.868,17.727 V 358.3 h -11.132 v -35.09 q 0,-15.972 -14.157,-15.972 a 14.31,14.31 0 0 0 -11.435,5.626 19.961,19.961 0 0 0 -4.658,13.128 V 358.3 H 2139.8 Z"
         id="path1086"
         inkscape:connector-curvature="0"
         style="fill:#ffffff" />
      <path
         class="cls-5"
         d="m 2204.9,299.009 h 10.647 v 8.228 h 0.484 a 19.784,19.784 0 0 1 7.8,-7.26 22.364,22.364 0 0 1 10.95,-2.9 q 10.89,0 16.759,6.231 5.869,6.231 5.868,17.727 V 358.3 h -11.132 v -36.543 q -0.363,-14.52 -14.642,-14.52 a 13.916,13.916 0 0 0 -11.132,5.384 19.506,19.506 0 0 0 -4.477,12.887 V 358.3 H 2204.9 Z"
         id="path1088"
         inkscape:connector-curvature="0"
         style="fill:#ffffff" />
      <path
         class="cls-5"
         d="m 2266.606,328.654 q 0,-13.672 8.591,-22.627 8.713,-8.953 21.9,-8.954 13.187,-10e-4 21.78,8.954 8.711,8.956 8.712,22.627 0,13.794 -8.712,22.627 -8.593,8.956 -21.78,8.954 -13.187,-0.002 -21.9,-8.954 -8.597,-8.953 -8.591,-22.627 z m 11.132,0 q 0,9.56 5.566,15.488 a 19.01,19.01 0 0 0 27.588,0 q 5.565,-5.927 5.566,-15.488 0,-9.438 -5.566,-15.367 a 18.75,18.75 0 0 0 -27.588,0 q -5.567,5.93 -5.567,15.367 z"
         id="path1090"
         inkscape:connector-curvature="0"
         style="fill:#ffffff" />
      <path
         class="cls-5"
         d="M 2347.8,271.663 V 358.3 h -11.132 v -86.637 z"
         id="path1092"
         inkscape:connector-curvature="0"
         style="fill:#ffffff" />
      <path
         class="cls-5"
         d="m 2356.873,328.654 q 0,-13.672 8.591,-22.627 8.713,-8.953 21.9,-8.954 13.187,-10e-4 21.78,8.954 8.711,8.956 8.712,22.627 0,13.794 -8.712,22.627 -8.593,8.956 -21.78,8.954 -13.187,-0.002 -21.9,-8.954 -8.593,-8.953 -8.591,-22.627 z m 11.132,0 q 0,9.56 5.566,15.488 a 19.01,19.01 0 0 0 27.588,0 q 5.565,-5.927 5.566,-15.488 0,-9.438 -5.566,-15.367 a 18.75,18.75 0 0 0 -27.588,0 q -5.566,5.93 -5.566,15.367 z"
         id="path1094"
         inkscape:connector-curvature="0"
         style="fill:#ffffff" />
      <path
         class="cls-5"
         d="m 2453.8,386.371 a 33.121,33.121 0 0 1 -9.317,-1.271 30.135,30.135 0 0 1 -7.926,-3.569 25.626,25.626 0 0 1 -6.11,-5.445 22.98,22.98 0 0 1 -3.872,-7.018 l 10.527,-4.356 a 16.673,16.673 0 0 0 6.292,8.349 17.642,17.642 0 0 0 10.406,3.146 q 9.075,0 14.157,-5.445 5.082,-5.445 5.082,-15 v -5.687 h -0.484 a 21.916,21.916 0 0 1 -8.53,7.441 25.517,25.517 0 0 1 -11.677,2.723 q -11.616,0 -19.965,-9.075 a 32.816,32.816 0 0 1 -8.229,-22.506 q 0,-13.187 8.229,-22.385 8.348,-9.194 19.965,-9.2 a 25.517,25.517 0 0 1 11.677,2.723 21.916,21.916 0 0 1 8.53,7.441 h 0.484 v -8.228 h 10.647 v 56.749 q 0,14.276 -8.106,22.385 -8.236,8.227 -21.78,8.228 z m 0.363,-36.3 a 17.045,17.045 0 0 0 13.431,-5.929 q 5.445,-5.927 5.445,-15.488 0,-9.316 -5.445,-15.367 a 17.13,17.13 0 0 0 -13.431,-6.05 17.362,17.362 0 0 0 -13.432,6.05 q -5.445,6.052 -5.445,15.367 0,9.438 5.445,15.367 a 17.355,17.355 0 0 0 13.427,6.05 z"
         id="path1096"
         inkscape:connector-curvature="0"
         style="fill:#ffffff" />
      <path
         class="cls-5"
         d="m 2549.746,299.009 -37.146,85.426 h -11.5 l 13.794,-29.887 -24.441,-55.539 h 12.1 l 17.666,42.592 h 0.242 l 17.182,-42.592 z"
         id="path1098"
         inkscape:connector-curvature="0"
         style="fill:#ffffff" />
    </g>
    <g
       id="g1144"
       style="fill:#ffffff">
      <path
         class="cls-5"
         d="M 470.406,175.3 V 19.927 h 47.523 q 35.586,0 57.18,21.483 21.594,21.483 21.591,56.2 0,34.94 -21.591,56.312 -21.591,21.372 -57.18,21.378 z M 490.37,39.023 V 156.2 h 27.559 q 27.123,0 42.749,-15.515 15.626,-15.515 15.622,-43.072 0,-27.342 -15.624,-42.966 -15.624,-15.624 -42.747,-15.624 z"
         id="path1102"
         inkscape:connector-curvature="0"
         style="fill:#ffffff" />
      <path
         class="cls-5"
         d="m 662.884,178.771 q -23.436,0 -38.626,-16.058 -15.19,-16.058 -15.189,-40.579 0,-24.3 14.756,-40.471 14.756,-16.171 37.757,-16.163 23.65,0 37.649,15.3 13.999,15.3 14,42.857 l -0.218,2.17 h -83.547 q 0.432,15.624 10.416,25.172 a 33.31,33.31 0 0 0 23.87,9.548 q 19.093,0 29.946,-19.1 l 17.794,8.68 a 53.016,53.016 0 0 1 -19.855,21.049 54.927,54.927 0 0 1 -28.753,7.595 z m -31.9,-69.44 h 60.977 a 26.48,26.48 0 0 0 -9,-18.337 q -8.139,-7.268 -21.809,-7.27 a 28.941,28.941 0 0 0 -19.422,6.944 q -8.141,6.948 -10.745,18.663 z"
         id="path1104"
         inkscape:connector-curvature="0"
         style="fill:#ffffff" />
      <path
         class="cls-5"
         d="M 782.451,175.3 H 762.487 L 719.522,68.969 h 21.7 l 31.248,82.46 h 0.434 l 31.682,-82.46 h 21.267 z"
         id="path1106"
         inkscape:connector-curvature="0"
         style="fill:#ffffff" />
      <path
         class="cls-5"
         d="m 884.872,178.771 q -23.436,0 -38.626,-16.058 -15.19,-16.058 -15.189,-40.579 0,-24.3 14.756,-40.471 14.756,-16.171 37.757,-16.163 23.65,0 37.649,15.3 13.999,15.3 14,42.857 l -0.218,2.17 h -83.547 q 0.432,15.624 10.416,25.172 a 33.31,33.31 0 0 0 23.87,9.548 q 19.093,0 29.946,-19.1 l 17.794,8.68 a 53.016,53.016 0 0 1 -19.855,21.049 54.927,54.927 0 0 1 -28.753,7.595 z m -31.9,-69.44 h 60.978 a 26.48,26.48 0 0 0 -9,-18.337 q -8.139,-7.268 -21.809,-7.27 a 28.941,28.941 0 0 0 -19.422,6.944 q -8.141,6.948 -10.745,18.663 z"
         id="path1108"
         inkscape:connector-curvature="0"
         style="fill:#ffffff" />
      <path
         class="cls-5"
         d="M 974.927,19.927 V 175.3 H 954.963 V 19.927 Z"
         id="path1110"
         inkscape:connector-curvature="0"
         style="fill:#ffffff" />
      <path
         class="cls-5"
         d="m 993.59,122.134 q 0,-24.519 15.407,-40.579 15.624,-16.055 39.277,-16.055 23.653,0 39.061,16.058 15.624,16.061 15.624,40.579 0,24.738 -15.624,40.579 -15.41,16.061 -39.061,16.058 -23.651,-0.003 -39.274,-16.061 -15.414,-16.056 -15.41,-40.579 z m 19.964,0 q 0,17.145 9.982,27.776 a 34.092,34.092 0 0 0 49.476,0 q 9.979,-10.63 9.982,-27.776 0,-16.926 -9.982,-27.559 a 33.626,33.626 0 0 0 -49.476,0 q -9.984,10.635 -9.982,27.559 z"
         id="path1112"
         inkscape:connector-curvature="0"
         style="fill:#ffffff" />
      <path
         class="cls-5"
         d="m 1176.956,178.771 a 45.861,45.861 0 0 1 -21.375,-4.991 37.366,37.366 0 0 1 -14.864,-13.237 h -0.868 l 0.868,14.756 v 46.872 h -19.964 V 68.969 h 19.1 v 14.756 h 0.868 a 37.416,37.416 0 0 1 14.864,-13.237 45.861,45.861 0 0 1 21.375,-4.991 q 21.045,0 35.588,16.492 14.972,16.712 14.973,40.145 0,23.655 -14.973,40.145 -14.548,16.493 -35.592,16.492 z m -3.255,-18.228 a 31.126,31.126 0 0 0 24.087,-10.85 q 9.765,-10.63 9.765,-27.559 0,-16.707 -9.765,-27.559 a 32.4,32.4 0 0 0 -48.392,0 q -9.551,10.854 -9.548,27.559 0,16.926 9.548,27.776 a 31.644,31.644 0 0 0 24.304,10.633 z"
         id="path1114"
         inkscape:connector-curvature="0"
         style="fill:#ffffff" />
      <path
         class="cls-5"
         d="m 1295,178.771 q -23.436,0 -38.626,-16.058 -15.19,-16.058 -15.189,-40.579 0,-24.3 14.756,-40.471 14.756,-16.171 37.759,-16.163 23.65,0 37.649,15.3 13.999,15.3 14,42.857 l -0.218,2.17 h -83.545 q 0.432,15.624 10.416,25.172 a 33.31,33.31 0 0 0 23.87,9.548 q 19.093,0 29.946,-19.1 l 17.794,8.68 a 53.016,53.016 0 0 1 -19.855,21.049 54.927,54.927 0 0 1 -28.757,7.595 z m -31.9,-69.44 h 60.977 a 26.48,26.48 0 0 0 -9,-18.337 q -8.139,-7.268 -21.809,-7.27 a 28.941,28.941 0 0 0 -19.422,6.944 q -8.138,6.948 -10.746,18.663 z"
         id="path1116"
         inkscape:connector-curvature="0"
         style="fill:#ffffff" />
      <path
         class="cls-5"
         d="m 1385.057,175.3 h -19.964 V 68.969 h 19.1 v 17.36 h 0.868 q 3.037,-8.462 12.478,-14.43 9.441,-5.968 18.554,-5.968 a 37.421,37.421 0 0 1 14.756,2.6 l -6.076,19.313 q -3.693,-1.515 -11.718,-1.519 -11.287,0 -19.639,9.114 a 30.476,30.476 0 0 0 -8.354,21.266 z"
         id="path1118"
         inkscape:connector-curvature="0"
         style="fill:#ffffff" />
      <path
         class="cls-5"
         d="m 1587.513,133.852 q 0,20.4 -14.973,32.767 -15.192,12.156 -36.891,12.152 a 54.526,54.526 0 0 1 -34.068,-11.284 q -14.76,-11.281 -20.4,-30.814 l 19.1,-7.812 a 49.331,49.331 0 0 0 5.425,12.586 40.72,40.72 0 0 0 8.138,9.657 36.794,36.794 0 0 0 10.308,6.293 31.558,31.558 0 0 0 11.936,2.278 q 13.67,0 22.351,-7.052 8.681,-7.052 8.68,-18.771 a 22.44,22.44 0 0 0 -7.161,-16.709 q -6.728,-6.724 -25.172,-13.02 -18.665,-6.724 -23.219,-9.114 -24.738,-12.582 -24.738,-37.107 0,-17.139 13.672,-29.295 13.884,-12.15 34.068,-12.152 17.791,0 30.814,9.114 13.02,8.9 17.359,22.351 l -18.662,7.812 A 27.616,27.616 0 0 0 1553.77,41.3 q -7.707,-5.747 -18.771,-5.75 -11.719,0 -19.747,6.51 a 18.96,18.96 0 0 0 -8.029,15.841 18.352,18.352 0 0 0 6.293,13.888 q 6.942,5.859 30.163,13.888 23.65,8.031 33.743,19.639 10.093,11.608 10.091,28.536 z"
         id="path1120"
         inkscape:connector-curvature="0"
         style="fill:#ffffff" />
      <path
         class="cls-5"
         d="m 1646.319,177.035 q -13.02,0 -21.592,-8.029 -8.572,-8.029 -8.788,-22.351 V 87.2 h -18.662 V 68.969 h 18.662 v -32.55 h 19.961 v 32.55 h 26.04 V 87.2 h -26.04 v 52.948 q 0,10.635 4.123,14.43 a 13.4,13.4 0 0 0 9.331,3.8 20.015,20.015 0 0 0 4.665,-0.542 23.953,23.953 0 0 0 4.231,-1.411 l 6.293,17.794 a 53.664,53.664 0 0 1 -18.224,2.816 z"
         id="path1122"
         inkscape:connector-curvature="0"
         style="fill:#ffffff" />
      <path
         class="cls-5"
         d="m 1775.866,175.3 h -19.1 v -14.757 h -0.868 q -4.557,7.812 -14,13.02 a 40.127,40.127 0 0 1 -19.639,5.208 q -19.531,0 -30.055,-11.176 -10.524,-11.176 -10.515,-31.795 V 68.969 h 19.964 V 134.5 q 0.65,26.04 26.257,26.04 11.931,0 19.964,-9.657 a 34.986,34.986 0 0 0 8.029,-23.11 V 68.969 h 19.964 z"
         id="path1124"
         inkscape:connector-curvature="0"
         style="fill:#ffffff" />
      <path
         class="cls-5"
         d="m 1845.09,178.771 q -20.832,0 -35.8,-16.492 -14.76,-16.707 -14.756,-40.145 0,-23.438 14.756,-40.145 14.974,-16.488 35.8,-16.492 a 45.872,45.872 0 0 1 21.375,4.991 37.436,37.436 0 0 1 14.864,13.237 h 0.868 l -0.868,-14.756 V 19.927 h 19.964 V 175.3 h -19.1 v -14.757 h -0.868 a 37.385,37.385 0 0 1 -14.864,13.237 45.872,45.872 0 0 1 -21.371,4.991 z m 3.255,-18.228 q 14.755,0 24.087,-10.633 9.766,-10.63 9.766,-27.776 0,-16.707 -9.766,-27.559 a 30.722,30.722 0 0 0 -24.087,-10.85 31.138,31.138 0 0 0 -24.087,10.85 q -9.765,10.854 -9.765,27.559 0,16.926 9.765,27.559 a 31.126,31.126 0 0 0 24.087,10.85 z"
         id="path1126"
         inkscape:connector-curvature="0"
         style="fill:#ffffff" />
      <path
         class="cls-5"
         d="m 1973.771,178.771 q -23.436,0 -38.626,-16.058 -15.19,-16.058 -15.189,-40.579 0,-24.3 14.756,-40.471 14.756,-16.171 37.757,-16.163 23.65,0 37.649,15.3 13.999,15.3 14,42.857 l -0.218,2.17 h -83.545 q 0.432,15.624 10.416,25.172 a 33.31,33.31 0 0 0 23.87,9.548 q 19.093,0 29.946,-19.1 l 17.794,8.68 a 53.016,53.016 0 0 1 -19.855,21.049 54.927,54.927 0 0 1 -28.755,7.595 z m -31.9,-69.44 h 60.977 a 26.48,26.48 0 0 0 -9,-18.337 q -8.139,-7.268 -21.809,-7.27 a 28.941,28.941 0 0 0 -19.422,6.944 q -8.141,6.948 -10.745,18.663 z"
         id="path1128"
         inkscape:connector-curvature="0"
         style="fill:#ffffff" />
      <path
         class="cls-5"
         d="m 2043.861,68.969 h 19.1 v 14.756 h 0.868 q 4.557,-7.812 14,-13.02 A 40.111,40.111 0 0 1 2097.46,65.5 q 19.531,0 30.055,11.175 10.524,11.175 10.524,31.791 V 175.3 h -19.964 v -65.535 q -0.652,-26.04 -26.257,-26.04 -11.937,0 -19.965,9.657 a 34.982,34.982 0 0 0 -8.028,23.11 V 175.3 h -19.964 z"
         id="path1130"
         inkscape:connector-curvature="0"
         style="fill:#ffffff" />
      <path
         class="cls-5"
         d="m 2199.666,177.035 q -13.02,0 -21.592,-8.029 -8.572,-8.029 -8.788,-22.351 V 87.2 h -18.662 V 68.969 h 18.662 v -32.55 h 19.964 v 32.55 h 26.04 V 87.2 h -26.04 v 52.948 q 0,10.635 4.123,14.43 a 13.4,13.4 0 0 0 9.331,3.8 20.015,20.015 0 0 0 4.665,-0.542 23.953,23.953 0 0 0 4.231,-1.411 l 6.293,17.794 a 53.664,53.664 0 0 1 -18.227,2.816 z"
         id="path1132"
         inkscape:connector-curvature="0"
         style="fill:#ffffff" />
      <path
         class="cls-5"
         d="m 2357.422,178.771 q -34.5,0 -57.722,-23.219 -23,-23.217 -23,-57.939 0,-34.722 23,-57.722 23,-23.436 57.722,-23.436 35.155,0 57.071,25.389 l -14.322,13.888 q -16.712,-20.181 -42.749,-20.181 -25.827,0 -43.183,17.36 -17.145,17.145 -17.144,44.7 0,27.555 17.144,44.7 17.358,17.364 43.183,17.36 27.123,0 47.089,-22.785 l 14.539,14.1 a 75.356,75.356 0 0 1 -27.125,20.507 82.706,82.706 0 0 1 -34.503,7.278 z"
         id="path1134"
         inkscape:connector-curvature="0"
         style="fill:#ffffff" />
      <path
         class="cls-5"
         d="M 2458.326,19.927 V 175.3 h -19.964 V 19.927 Z"
         id="path1136"
         inkscape:connector-curvature="0"
         style="fill:#ffffff" />
      <path
         class="cls-5"
         d="m 2577.458,175.3 h -19.1 v -14.757 h -0.868 q -4.557,7.812 -14,13.02 a 40.127,40.127 0 0 1 -19.639,5.208 q -19.531,0 -30.055,-11.176 -10.524,-11.176 -10.516,-31.795 V 68.969 h 19.964 V 134.5 q 0.65,26.04 26.257,26.04 11.931,0 19.964,-9.657 a 34.986,34.986 0 0 0 8.029,-23.11 V 68.969 h 19.964 z"
         id="path1138"
         inkscape:connector-curvature="0"
         style="fill:#ffffff" />
      <path
         class="cls-5"
         d="m 2659.483,178.771 a 45.861,45.861 0 0 1 -21.375,-4.991 37.366,37.366 0 0 1 -14.864,-13.237 h -0.868 V 175.3 h -19.1 V 19.927 h 19.964 v 49.042 l -0.868,14.756 h 0.868 a 37.416,37.416 0 0 1 14.864,-13.237 45.861,45.861 0 0 1 21.375,-4.991 q 21.045,0 35.588,16.492 14.972,16.712 14.973,40.145 0,23.655 -14.973,40.145 -14.538,16.493 -35.584,16.492 z m -3.256,-18.228 a 31.124,31.124 0 0 0 24.087,-10.85 q 9.766,-10.63 9.766,-27.559 0,-16.707 -9.766,-27.559 a 32.4,32.4 0 0 0 -48.391,0 q -9.551,10.854 -9.548,27.559 0,16.926 9.548,27.776 a 31.642,31.642 0 0 0 24.304,10.633 z"
         id="path1140"
         inkscape:connector-curvature="0"
         style="fill:#ffffff" />
      <path
         class="cls-5"
         d="m 2810.08,145.787 q 0,13.89 -12.152,23.436 -12.152,9.546 -30.6,9.548 -16.062,0 -28.21,-8.354 a 46.038,46.038 0 0 1 -17.36,-22.026 l 17.794,-7.595 a 33.008,33.008 0 0 0 11.393,14.864 27.673,27.673 0 0 0 16.384,5.317 q 9.546,0 15.949,-4.123 6.403,-4.123 6.4,-9.765 0,-10.2 -15.624,-14.973 l -18.228,-4.557 q -31.034,-7.812 -31.031,-29.946 0,-14.536 11.826,-23.328 11.826,-8.792 30.279,-8.785 a 49.227,49.227 0 0 1 25.5,6.727 36.573,36.573 0 0 1 15.949,18.011 l -17.794,7.378 a 22.426,22.426 0 0 0 -9.874,-10.524 30.986,30.986 0 0 0 -15.3,-3.8 25.659,25.659 0 0 0 -14,3.906 q -6.185,3.906 -6.185,9.548 0,9.114 17.144,13.02 l 16.058,4.123 q 31.68,7.811 31.682,31.898 z"
         id="path1142"
         inkscape:connector-curvature="0"
         style="fill:#ffffff" />
    </g>
  </g>
</svg>
